<svg xmlns="http://www.w3.org/2000/svg" xmlns:xlink="http://www.w3.org/1999/xlink" viewBox="0 0 1000 1000">
  <defs>
    <style>
      .cls-1 {
        fill: #fff;
      }
    </style>
    <symbol id="manual-2" data-name="manual" viewBox="0 0 630.09 792.44">
      <path class="cls-1" d="M546.25,0V42.9h-9.34q-218.41,0-436.83.06c-26.52,0-47,13.66-53.92,37.27C35.38,117,50.43,150.79,84.51,159.08c7.12,1.73,14.8,1.56,22.22,1.57q212.38.07,424.77,0h15v18.44q0,291.65,0,583.3c0,2.58,0,5.17-.18,7.75-.94,13.36-10.17,22.23-23.55,22.25q-106,.12-212,.07h-205c-50.28,0-92.19-33.34-103-82.34a112.64,112.64,0,0,1-2.41-23.9C.2,493.48.44,300.77,0,108.07-.08,71.21,10.75,40.45,41.18,18.2,58.43,5.58,78,0,99.27,0L386.18,0q75,0,149.92,0ZM46.63,189.38v16.5q0,241.67,0,483.33a56.83,56.83,0,0,0,56.88,56.92q193,.06,386,0h9.92V203.89c-2.28-.14-4-.33-5.62-.33q-190.41,0-380.8.11C90.37,203.72,68.24,202.79,46.63,189.38Z"/>
      <path class="cls-1" d="M568.53,139.38H452.37q-171.44,0-342.89,0c-22.27,0-39.3-16.2-39.23-37.08.08-21,16.63-37,39.17-37.06q121.48-.21,243-.06,134.4,0,268.8,0h8.91V731.6H568.53Z"/>
      <path class="cls-1" d="M427.24,462.12c0,18.33-1.56,20.25-19.54,23.86-2.81.57-5.6,1.3-8.43,1.62-6.32.73-10.77,3.39-12.08,10.13-.38,1.92-1.58,3.67-2.3,5.53-10.92,28.11-11.8,19.37,3.57,43.4,4.5,7,4.41,13.15-1.46,19.37-21.16,22.42-21.14,20.22-41.55,5.7-6.51-4.64-12.62-6.27-19.75-2a16.23,16.23,0,0,1-4.79,1.86c-16.49,3.85-26,12.91-27.31,31-.82,11.45-5.79,14-17.67,14-24.81.09-25.24.18-30.25-24.16-1.88-9.13-5.47-15.35-14.66-17.73a20.44,20.44,0,0,1-2.35-1.06c-27.14-11-18.53-11.8-41.59,3.23-7.41,4.83-13.45,4.47-20.05-1.52-19.79-17.94-20.38-19.66-5.73-41.7,4.66-7,5.69-13.46,1.89-20.83a18.5,18.5,0,0,1-1.52-4c-3.75-15.49-12.43-24.23-29.4-25.56-12.11-.95-14.72-5.82-14.8-18-.18-26.06-.21-26.22,25.32-31.1,7.73-1.48,12-5.43,15.83-12.42,8.94-16.25,11.22-30.89-2.92-45.59-5.51-5.73-4.27-12.69,1.51-18.4.2-.2.38-.43.58-.63,23.07-24.12,21.45-19.78,42.29-5.83,6.4,4.29,12.29,5.67,19.09,1.87a3.31,3.31,0,0,1,.82-.28c17.21-4.38,28.79-13.24,29.14-33,.16-9.13,6.66-13,15.86-13.21,27.86-.73,28-.93,33.32,26.64,1.36,7.08,4.73,10.56,11.3,14.16,17.43,9.53,32.89,10.62,48.23-3.72,5-4.66,11.18-3.65,16.31,1.17.42.39.86.75,1.3,1.12,20.87,17.69,21.33,19.31,6.11,41.93-4.76,7.07-5.75,13.4-1.49,20.64a6.1,6.1,0,0,1,.69,1.57c4.29,17.24,14,27.21,32.93,28.82C426,440.08,427.24,444.05,427.24,462.12Zm-154.69-74.6c-42.55.23-74.68,32.93-74.51,75.82.15,39.75,33.91,72.66,74.44,72.55s74-33.81,74-74.24C346.43,421,312.84,387.31,272.55,387.52Z"/>
    </symbol>
  </defs>
  <title>manual</title>
  <g id="manual">
    <use width="630.09" height="792.44" transform="translate(184.96 103.78)" xlink:href="#manual-2"/>
  </g>
</svg>
