<svg id="manual-plurid" xmlns="http://www.w3.org/2000/svg" xmlns:xlink="http://www.w3.org/1999/xlink" viewBox="0 0 1000 1000">
  <defs>
    <style>
      .cls-1 {
        fill: none;
      }

      .cls-2 {
        isolation: isolate;
      }

      .cls-3 {
        fill: #252c34;
      }

      .cls-4 {
        clip-path: url(#clip-path);
      }

      .cls-5 {
        fill: #fff;
      }

      .cls-6 {
        fill: #151c24;
      }

      .cls-7 {
        fill: #141b23;
      }
    </style>
    <clipPath id="clip-path">
      <polygon class="cls-1" points="997.49 45.08 996.03 830.89 25.29 967.32 26.75 181.51 997.49 45.08"/>
    </clipPath>
  </defs>
  <title>manual-plurid</title>
  <g class="cls-2">
    <g>
      <polygon class="cls-3" points="997.49 45.08 996.03 830.89 25.29 967.32 26.75 181.51 997.49 45.08"/>
      <g class="cls-2">
        <g class="cls-4">
          <g>
            <path class="cls-5" d="M470.42,812q-69.65,9.79-139.31,19.56c-25,3.51-45.13-15.49-45.08-42.44q.38-207.12.76-414.26l0-14.14c16.78,8.9,34,7.47,51.55,5l1.12-.16q73-10.41,146-20.64,78.21-11,156.42-21.95c1.33-.19,2.66-.21,4.46-.34l-.86,464.76-7.87,1.11L470.42,812m86.34-651.49q-113.91,16-227.84,32a83.41,83.41,0,0,0-46.16,22.05c-24.2,22.47-32.85,50-32.84,81.62,0,165.12-.46,330.32-.65,495.47a99.26,99.26,0,0,0,1.88,20.22c8.51,40.79,41.74,64.68,81.66,59.07l81.43-11.43,81.42-11.45,51.78-7.28Q605.7,832.65,664,824.41c10.62-1.5,18-10.14,18.74-21.7.15-2.22.15-4.44.15-6.66l.93-499.94,0-15.81L671.9,282l-222,31.25L334.59,329.4l-1.53.21-1.22.17c-5,.71-10.13,1.34-14.9.75-27-3.3-38.94-30.61-30.33-63.3,5.54-21,21.83-35,42.89-38q127.8-18,255.59-36L646,184.75l30.43-4.28,7.43-1.05.07-36.75-8.07,1.14q-59.52,8.35-119,16.71"/>
            <path class="cls-5" d="M430.58,234.06q-46.84,6.58-93.7,13.25a36.55,36.55,0,0,0-31.16,36.12c-.1,17.91,13.4,29.89,31.09,27.41Q473,291.75,609.1,272.59l92.23-13-.94,507.59,48.89-6.87,1.06-571.16-7.08,1q-106.72,15-213.45,30l-99.23,13.92"/>
            <path class="cls-5" d="M465.45,632.54c-32.11,4.52-58.78-19.9-58.83-53.9-.07-36.75,25.49-68.35,59.29-73.3l.3,0c31.86-4.48,58.31,20.6,58.27,55.33s-26.76,67.29-58.87,71.89l-.16,0m2.92-197c-2.37.33-5.12.8-8.34,1.34-7.31,1.24-12.48,5.25-12.62,13.09-.3,17-9.52,25.88-23.19,31.55a4,4,0,0,0-.65.33,13.62,13.62,0,0,1-6.25,2.79c-3,.42-5.87-.48-8.9-2.25-8.11-4.72-11.93-8.07-15.88-7.51-4.11.57-8.36,5.37-17.72,17.22-.15.2-.3.41-.46.61-4.6,5.54-5.6,11.64-1.23,15.94,11.21,11,9.37,23.83,2.25,38.74-3.07,6.43-6.45,10.29-12.59,12.41-20.28,7-20.26,7.18-20.16,29.5.05,10.42,2.11,14.3,11.72,13.76,13.48-.75,20.36,5.77,23.31,18.63a14.27,14.27,0,0,0,1.2,3.26c3,5.9,2.18,11.53-1.53,18.06-11.67,20.54-11.2,21.94,4.48,35.11,2.85,2.39,5.56,3.37,8.39,3,2.38-.33,4.84-1.64,7.53-3.9,9.59-8.09,12.29-11.49,15.78-12,3.17-.45,7,1.52,17.25,4.57a14.61,14.61,0,0,0,1.86.64c7.3,1,10.15,5.94,11.63,13.56,3.69,19,4.22,20.11,20.46,17.83l3.51-.5c9.44-1.37,13.39-4.08,14.06-14,1.06-15.65,8.63-24.48,21.73-29.61a15.31,15.31,0,0,0,3.82-2.13,13.5,13.5,0,0,1,6.51-3.07c3.1-.44,6.08.6,9.16,2.54,7.71,4.84,11.74,7.81,15.67,7.25,4.32-.6,8.52-5.47,17.34-16.77,4.67-6,4.75-11.24,1.19-16.77-12.17-18.88-11.48-11.49-2.77-36.79a37,37,0,0,0,1.84-5c1.05-5.91,4.59-8.69,9.6-10,2.25-.59,4.47-1.53,6.7-2.33,14.28-5.11,15.53-6.93,15.56-22.63,0-15.49-.92-18.76-10.73-18.27-15,.73-22.72-6.74-26.1-21a4.65,4.65,0,0,0-.55-1.27c-3.37-5.72-2.57-11.26,1.22-17.86,12.13-21.08,11.76-22.42-4.79-35.25-.34-.27-.7-.53-1-.82a9.16,9.16,0,0,0-7.29-2.56,9.36,9.36,0,0,0-5.67,3.38c-6.44,7.39-12.9,11.1-19.59,12-6,.84-12.18-.53-18.71-3.47-5.21-2.34-7.89-5-8.95-10.87-3.56-19.69-4.17-22.42-18.08-20.46"/>
          </g>
        </g>
      </g>
    </g>
    <polygon class="cls-6" points="25.29 967.32 2.5 954.92 3.96 169.11 26.75 181.51 25.29 967.32"/>
    <polygon class="cls-7" points="26.75 181.51 3.96 169.11 974.7 32.68 997.49 45.08 26.75 181.51"/>
  </g>
</svg>
